<?xml version="1.0" encoding="UTF-8"?><svg xmlns="http://www.w3.org/2000/svg" width="1800" height="980" viewBox="0 0 1800 980"><rect width="100%" height="100%" fill="#FAF9F5"/><style>text{font-family:'Microsoft YaHei','Noto Sans CJK SC',sans-serif;fill:#2E2F23}.tick{font-size:24px}.label{font-size:28px}.axis{stroke:#8F9188;stroke-width:2}.grid{stroke:#CFCFC7;stroke-width:1.5;opacity:.55}</style><text x="900" y="52" text-anchor="middle" font-size="39" font-weight="600">不同储能调度方案的购电费用对比</text><text x="900" y="101" text-anchor="middle" font-size="25" fill="#658873">MILP 优化较无储能方案节省 12925.20 元（26.90%）</text><line x1="170" y1="780" x2="1710" y2="780" class="grid"/><text x="148" y="788" text-anchor="end" class="tick">0</text><line x1="170" y1="657.8846153846154" x2="1710" y2="657.8846153846154" class="grid"/><text x="148" y="665.8846153846154" text-anchor="end" class="tick">10,000</text><line x1="170" y1="535.7692307692307" x2="1710" y2="535.7692307692307" class="grid"/><text x="148" y="543.7692307692307" text-anchor="end" class="tick">20,000</text><line x1="170" y1="413.65384615384613" x2="1710" y2="413.65384615384613" class="grid"/><text x="148" y="421.65384615384613" text-anchor="end" class="tick">30,000</text><line x1="170" y1="291.53846153846155" x2="1710" y2="291.53846153846155" class="grid"/><text x="148" y="299.53846153846155" text-anchor="end" class="tick">40,000</text><line x1="170" y1="169.42307692307693" x2="1710" y2="169.42307692307693" class="grid"/><text x="148" y="177.42307692307693" text-anchor="end" class="tick">50,000</text><line x1="170" y1="780" x2="1710" y2="780" class="axis"/><line x1="170" y1="145" x2="170" y2="780" class="axis"/><text x="900" y="868" text-anchor="middle" class="label"></text><text x="52" y="462.5" text-anchor="middle" class="label" transform="rotate(-90 52 462.5)">全天购电费用 / 元</text><rect x="301.66666666666663" y="193.21058490023793" width="250" height="586.7894150997621" rx="10" fill="#E7E3E4"/><text x="426.66666666666663" y="171.21058490023793" text-anchor="middle" font-size="28" font-weight="600">48052.05</text><text x="426.66666666666663" y="828" text-anchor="middle" font-size="28">无储能</text><rect x="815" y="350.75184132003574" width="250" height="429.24815867996426" rx="10" fill="#D2BFA5"/><text x="940" y="328.75184132003574" text-anchor="middle" font-size="28" font-weight="600">35151.03</text><text x="940" y="828" text-anchor="middle" font-size="28">动态规划（5 kWh）</text><rect x="1328.3333333333335" y="351.04713741925167" width="250" height="428.95286258074833" rx="10" fill="#658873"/><text x="1453.3333333333335" y="329.04713741925167" text-anchor="middle" font-size="28" font-weight="600">35126.85</text><text x="1453.3333333333335" y="828" text-anchor="middle" font-size="28">MILP优化</text><text x="900" y="938" text-anchor="middle" font-size="21" fill="#66685F">动态规划采用 5 kWh 储电量网格，费用与 MILP 连续最优解相差 24.18 元。</text></svg>