<svg xmlns="http://www.w3.org/2000/svg" width="1800" height="980" viewBox="0 0 1800 980"><rect width="100%" height="100%" fill="white"/><style>text{font-family:'Microsoft YaHei','Noto Sans CJK SC',sans-serif;fill:#263746}</style><g font-weight="600"><text x="900" y="62" font-size="36" text-anchor="middle">储电量轨迹差（DP − MILP）</text></g><line x1="165" y1="820" x2="1635" y2="820" stroke="#DDE2E4" stroke-width="1" stroke-dasharray=""/><text x="147" y="828" font-size="24" text-anchor="end">-30</text><line x1="165" y1="657.5" x2="1635" y2="657.5" stroke="#DDE2E4" stroke-width="1" stroke-dasharray=""/><text x="147" y="665.5" font-size="24" text-anchor="end">-15</text><line x1="165" y1="495" x2="1635" y2="495" stroke="#DDE2E4" stroke-width="1" stroke-dasharray=""/><text x="147" y="503" font-size="24" text-anchor="end">0</text><line x1="165" y1="332.5" x2="1635" y2="332.5" stroke="#DDE2E4" stroke-width="1" stroke-dasharray=""/><text x="147" y="340.5" font-size="24" text-anchor="end">15</text><line x1="165" y1="170" x2="1635" y2="170" stroke="#DDE2E4" stroke-width="1" stroke-dasharray=""/><text x="147" y="178" font-size="24" text-anchor="end">30</text><line x1="165" y1="820" x2="165" y2="828" stroke="#263746" stroke-width="1" stroke-dasharray=""/><text x="165" y="859" font-size="24" text-anchor="middle">0</text><line x1="410" y1="820" x2="410" y2="828" stroke="#263746" stroke-width="1" stroke-dasharray=""/><text x="410" y="859" font-size="24" text-anchor="middle">4</text><line x1="655" y1="820" x2="655" y2="828" stroke="#263746" stroke-width="1" stroke-dasharray=""/><text x="655" y="859" font-size="24" text-anchor="middle">8</text><line x1="900" y1="820" x2="900" y2="828" stroke="#263746" stroke-width="1" stroke-dasharray=""/><text x="900" y="859" font-size="24" text-anchor="middle">12</text><line x1="1145" y1="820" x2="1145" y2="828" stroke="#263746" stroke-width="1" stroke-dasharray=""/><text x="1145" y="859" font-size="24" text-anchor="middle">16</text><line x1="1390" y1="820" x2="1390" y2="828" stroke="#263746" stroke-width="1" stroke-dasharray=""/><text x="1390" y="859" font-size="24" text-anchor="middle">20</text><line x1="1635" y1="820" x2="1635" y2="828" stroke="#263746" stroke-width="1" stroke-dasharray=""/><text x="1635" y="859" font-size="24" text-anchor="middle">24</text><line x1="165" y1="170" x2="165" y2="820" stroke="#263746" stroke-width="1.5" stroke-dasharray=""/><line x1="165" y1="820" x2="1635" y2="820" stroke="#263746" stroke-width="1.5" stroke-dasharray=""/><text x="900" y="908" font-size="28" text-anchor="middle">时间 / h</text><g transform="translate(55 495) rotate(-90)"><text x="0" y="0" font-size="28" text-anchor="middle">储电量差 / kWh</text></g><line x1="165" y1="495" x2="1635" y2="495" stroke="#263746" stroke-width="1.5" stroke-dasharray="8 6"/><path d="M 165 495 L 175.20833333333334 495 L 185.41666666666666 495 L 195.625 495 L 205.83333333333331 495 L 216.04166666666669 495 L 226.25 495 L 236.45833333333331 495 L 246.66666666666666 495 L 256.875 495 L 267.08333333333337 495 L 277.29166666666663 495 L 287.5 495 L 297.70833333333337 495 L 307.91666666666663 495 L 318.125 495 L 328.3333333333333 495 L 338.5416666666667 495 L 348.75 495 L 358.95833333333337 495 L 369.1666666666667 495 L 379.375 495 L 389.5833333333333 495 L 399.7916666666667 495 L 410 495 L 420.20833333333337 495 L 430.4166666666667 495 L 440.625 495 L 450.8333333333333 495 L 461.04166666666663 495 L 471.25 495 L 481.45833333333337 495 L 491.66666666666663 495 L 501.875 495 L 512.0833333333334 495 L 522.2916666666667 495 L 532.5 495 L 542.7083333333334 467.86992283951196 L 552.9166666666667 486.4631327160487 L 563.125 486.41458333333804 L 573.3333333333334 462.8883950617342 L 583.5416666666666 469.06500000000733 L 593.75 436.0871296296349 L 603.9583333333333 400.3285030864223 L 614.1666666666666 388.9707561728414 L 624.375 382.1493672839521 L 634.5833333333334 364.132530864196 L 644.7916666666667 365.7747839506131 L 655 351.521527777771 L 665.2083333333333 352.46703703702906 L 675.4166666666667 359.55945987653723 L 685.625 370.9182098765359 L 695.8333333333334 381.51802469135083 L 706.0416666666667 354.5454320987577 L 716.25 371.8918055555458 L 726.4583333333333 343.09780864196455 L 736.6666666666666 345.99271604936973 L 746.875 329.17858024690173 L 757.0833333333333 328.4292746913462 L 767.2916666666667 335.81392469134585 L 777.5 309.315483024678 L 787.7083333333334 321.2990455246767 L 797.9166666666667 324.3889830246777 L 808.125 345.9964996913459 L 818.3333333333333 358.65227052467804 L 828.5416666666666 368.68583302467874 L 838.75 345.5621371913427 L 848.9583333333333 341.318991358011 L 859.1666666666667 341.318991358011 L 869.375 291.1431080246765 L 879.5833333333334 246.60602885801313 L 889.7916666666667 590.2477500000456 L 900 590.2477500000456 L 910.2083333333333 590.2477500000456 L 920.4166666666667 590.2477500000456 L 930.625 590.2477500000456 L 940.8333333333334 590.2477500000456 L 951.0416666666666 590.2477500000456 L 961.25 580.4608083333702 L 971.4583333333333 559.4058458333666 L 981.6666666666667 540.5211250000259 L 991.875 548.8413958333529 L 1002.0833333333333 536.7447333333439 L 1012.2916666666667 532.6696125000142 L 1022.5 549.637537500007 L 1032.7083333333335 528.3124458333425 L 1042.9166666666665 517.8366666666686 L 1053.125 499.0124500000032 L 1063.3333333333333 495 L 1073.5416666666667 479.57614197531717 L 1083.75 481.74260802469234 L 1093.9583333333333 481.74260802469234 L 1104.1666666666667 495 L 1114.375 495 L 1124.5833333333335 495 L 1134.7916666666665 495 L 1145 495 L 1155.2083333333335 495 L 1165.4166666666665 495 L 1175.625 495 L 1185.8333333333335 495 L 1196.0416666666665 495 L 1206.25 495 L 1216.4583333333333 495 L 1226.6666666666667 495 L 1236.875 495 L 1247.0833333333335 495 L 1257.2916666666665 495 L 1267.5 495 L 1277.7083333333335 495 L 1287.9166666666665 750.5793981481474 L 1298.125 750.5793981481474 L 1308.3333333333333 750.5793981481474 L 1318.5416666666667 750.5793981481474 L 1328.75 718.8706327160435 L 1338.9583333333335 719.0628240740701 L 1349.1666666666665 708.1516512345721 L 1359.375 683.4396141975419 L 1369.5833333333335 647.9678703703826 L 1379.7916666666665 645.1698611111215 L 1390 637.1953240740822 L 1400.2083333333333 631.8384413580309 L 1410.4166666666667 599.2892901234616 L 1420.625 547.7208179012367 L 1430.8333333333335 496.8420679012341 L 1441.0416666666665 495 L 1451.25 495 L 1461.4583333333335 495 L 1471.6666666666665 495 L 1481.875 495 L 1492.0833333333333 495 L 1502.2916666666667 495 L 1512.5 495 L 1522.7083333333335 495 L 1532.9166666666665 495 L 1543.125 495 L 1553.3333333333335 495 L 1563.5416666666665 495 L 1573.75 495 L 1583.9583333333333 495 L 1594.1666666666667 495 L 1604.375 386.6666666666667 L 1614.5833333333335 386.6666666666667 L 1624.7916666666665 495 L 1635 495" fill="none" stroke="#E48578" stroke-width="3.5" stroke-linejoin="round"/></svg>